<?xml version="1.0" standalone="no"?>
<!DOCTYPE svg PUBLIC "-//W3C//DTD SVG 20010904//EN"
 "http://www.w3.org/TR/2001/REC-SVG-20010904/DTD/svg10.dtd">
<svg version="1.0" xmlns="http://www.w3.org/2000/svg"
 width="260.000000pt" height="260.000000pt" viewBox="0 0 260.000000 260.000000"
 preserveAspectRatio="xMidYMid meet">
<metadata>
Created by potrace 1.11, written by Peter Selinger 2001-2013
</metadata>
<g transform="translate(0.000000,260.000000) scale(0.100000,-0.100000)"
fill="#000000" stroke="none">
<path d="M0 1300 l0 -1300 1300 0 1300 0 0 1300 0 1300 -1300 0 -1300 0 0
-1300z m1564 1039 c14 -11 26 -27 26 -35 0 -8 4 -13 8 -10 5 3 15 -6 22 -19 7
-13 17 -22 22 -19 4 3 8 -2 8 -11 0 -9 5 -13 10 -10 6 4 10 3 9 -2 -3 -18 1
-36 7 -30 10 9 35 -20 37 -42 0 -11 5 -17 9 -15 4 3 8 0 8 -6 0 -6 5 -8 10 -5
6 4 10 3 9 -2 -3 -19 2 -34 10 -29 5 3 11 -4 14 -15 4 -14 10 -18 19 -13 7 4
10 4 6 0 -3 -4 5 -21 20 -37 14 -16 27 -37 28 -47 2 -9 17 -29 34 -44 16 -16
31 -31 33 -35 1 -5 5 -7 10 -5 4 1 6 -1 5 -5 -3 -19 33 -83 44 -77 7 4 8 3 4
-4 -4 -7 -2 -12 3 -12 6 0 11 -5 11 -11 0 -6 8 -23 19 -37 25 -37 20 -112 -13
-179 -14 -29 -31 -53 -36 -53 -6 0 -10 -7 -10 -15 0 -8 -5 -15 -11 -15 -5 0
-7 -4 -4 -10 3 -5 2 -10 -4 -10 -18 0 -24 -49 -10 -67 12 -14 12 -16 -1 -8
-13 8 -13 6 -1 -8 7 -9 16 -15 20 -13 4 3 8 -5 8 -16 1 -11 10 -26 20 -34 10
-7 14 -14 8 -14 -5 0 -3 -5 5 -10 8 -5 15 -13 15 -17 0 -4 9 -18 20 -30 34
-37 45 -51 57 -78 6 -14 16 -25 21 -25 6 0 8 -2 5 -5 -3 -3 8 -21 25 -40 17
-20 32 -45 34 -57 2 -12 8 -25 14 -28 13 -9 15 -160 1 -169 -5 -3 -13 -23 -17
-44 -4 -20 -16 -48 -26 -61 -11 -13 -19 -28 -19 -32 0 -7 -192 -197 -263 -261
-20 -17 -33 -33 -31 -36 3 -3 -11 -10 -30 -17 -20 -6 -36 -17 -36 -25 0 -7
-11 -20 -25 -29 -14 -9 -23 -21 -20 -26 6 -9 -8 -14 -28 -11 -4 0 -6 -4 -5
-11 2 -7 -7 -17 -19 -23 -13 -5 -23 -14 -23 -20 -1 -5 -23 -27 -49 -48 -27
-21 -59 -48 -70 -58 -14 -13 -21 -16 -22 -7 0 10 -2 10 -6 1 -3 -8 -12 -4 -27
12 -13 14 -26 21 -30 17 -4 -4 -6 -2 -4 3 3 11 -43 61 -54 58 -4 -2 -4 5 -1
15 3 9 2 14 -2 9 -5 -4 -18 2 -30 13 -11 11 -42 30 -68 43 -26 13 -44 27 -40
31 3 3 -2 6 -13 6 -10 0 -33 8 -49 18 -31 19 -111 42 -155 44 -14 1 -31 6 -38
11 -7 5 -72 9 -145 8 -158 -3 -157 -3 -157 -11 0 -4 -10 -6 -22 -6 -13 1 -27
0 -33 -3 -5 -3 -21 -7 -33 -9 -17 -2 -22 1 -16 10 6 9 3 9 -10 -1 -20 -17 -97
-16 -107 0 -11 19 0 92 19 113 12 14 13 17 2 11 -8 -4 -1 7 15 25 17 18 24 29
16 25 -9 -5 -12 -4 -7 3 4 7 14 12 22 12 8 0 13 4 9 10 -3 5 3 18 14 29 11 11
17 22 14 25 -9 9 157 167 169 160 7 -4 8 -3 4 4 -4 8 4 16 21 23 41 15 69 50
79 99 2 8 4 98 5 200 1 122 5 190 13 199 8 12 8 13 -1 7 -9 -5 -13 1 -13 19 0
14 4 24 9 21 11 -7 9 13 -3 33 -5 8 -3 16 5 22 12 7 11 9 -1 9 -13 0 -13 1 0
10 8 5 10 10 4 10 -5 0 -11 19 -13 43 -3 56 -5 69 -15 86 -6 10 -5 12 3 7 8
-6 10 0 6 21 -3 15 -8 57 -10 93 -4 49 -10 69 -25 82 -27 22 -27 79 0 103 11
10 30 23 43 30 12 6 21 17 19 24 -1 7 2 10 7 7 4 -3 28 8 52 24 24 16 50 30
57 30 7 0 10 5 6 12 -4 6 -3 8 3 5 6 -4 22 2 36 13 23 19 92 53 109 54 3 1 10
5 15 10 5 5 3 6 -4 2 -7 -4 -13 -5 -13 -3 0 8 75 54 100 62 14 4 33 16 43 26
10 11 32 19 50 20 27 0 29 2 12 9 -18 8 -18 9 -2 9 10 1 15 6 12 11 -4 6 -3
10 2 9 4 -1 24 -1 43 0 27 1 31 4 20 11 -13 8 -12 10 3 10 9 0 17 5 17 10 0 6
3 9 8 9 20 -3 32 2 26 13 -4 6 -3 8 3 5 6 -4 19 0 29 8 26 20 47 18 78 -6z"/>
<path d="M1438 2202 c6 -2 12 -9 12 -14 0 -6 -3 -9 -6 -5 -4 3 -13 -1 -21 -9
-27 -26 -7 -25 21 1 25 23 74 36 61 16 -3 -5 -2 -12 3 -15 4 -2 9 4 9 15 2 17
-4 19 -45 17 -26 -1 -41 -3 -34 -6z"/>
<path d="M1541 2174 c7 -8 6 -14 -3 -17 -10 -4 -10 -6 0 -6 6 -1 12 -10 12
-21 0 -22 15 -27 26 -8 4 7 3 8 -4 4 -10 -6 -17 23 -14 55 1 3 -6 6 -13 6 -11
0 -12 -4 -4 -13z"/>
<path d="M1332 2120 c-14 -12 -18 -20 -10 -22 7 -3 3 -7 -9 -10 -17 -4 -20 -2
-16 11 4 14 3 14 -6 -1 -6 -9 -20 -15 -31 -13 -11 2 -19 -1 -17 -8 1 -7 -7
-12 -18 -11 -19 1 -42 -15 -48 -33 -1 -5 -6 -6 -12 -5 -5 2 -7 0 -3 -4 4 -4 0
-13 -10 -21 -16 -12 -15 -13 3 -6 11 3 24 13 28 20 5 7 13 11 18 7 6 -3 5 -12
-3 -22 -12 -15 -11 -16 4 -3 10 7 15 18 11 24 -4 6 0 8 10 4 19 -7 22 4 7 19
-7 7 -6 11 4 11 8 0 13 -3 11 -7 -2 -4 2 -15 9 -25 10 -14 15 -15 21 -5 5 9 4
11 -3 6 -7 -4 -12 -3 -12 3 0 5 5 13 10 16 6 4 8 11 5 16 -4 5 1 10 9 10 29 3
32 4 64 31 36 30 21 47 -16 18z m28 6 c0 -2 -8 -10 -17 -17 -16 -13 -17 -12
-4 4 13 16 21 21 21 13z m-94 -61 c-1 -8 -5 -17 -8 -21 -5 -4 -4 16 1 34 3 9
9 -1 7 -13z"/>
<path d="M1592 2090 c0 -14 2 -19 5 -12 2 6 2 18 0 25 -3 6 -5 1 -5 -13z"/>
<path d="M1631 2042 c-1 -18 3 -31 8 -28 5 3 11 -1 15 -9 8 -23 26 -18 25 8 0
18 -2 19 -7 5 -7 -16 -8 -16 -20 3 -8 12 -9 18 -3 14 6 -3 11 1 11 10 0 9 -4
14 -9 11 -5 -4 -12 0 -14 6 -3 7 -6 -2 -6 -20z"/>
<path d="M1336 2008 c3 -5 10 -6 15 -3 13 9 11 12 -6 12 -8 0 -12 -4 -9 -9z"/>
<path d="M1367 1975 c-4 -8 -3 -16 1 -19 4 -3 9 4 9 15 2 23 -3 25 -10 4z"/>
<path d="M1064 1954 c-18 -15 -18 -15 2 -5 12 6 25 7 29 3 5 -4 5 -1 1 6 -9
15 -8 15 -32 -4z"/>
<path d="M1393 1964 c4 -4 -1 -16 -10 -27 -10 -11 -13 -17 -7 -14 12 7 38 -16
28 -25 -3 -3 1 -9 8 -14 7 -4 10 -3 5 1 -4 5 -1 15 6 24 16 18 2 54 -23 59 -8
2 -12 0 -7 -4z"/>
<path d="M1711 1958 c-1 -21 15 -32 25 -17 4 7 3 9 -4 5 -6 -3 -13 2 -15 11
-4 16 -5 16 -6 1z"/>
<path d="M1183 1922 c0 -15 2 -21 4 -14 3 6 9 10 14 6 14 -8 11 6 -5 21 -11
12 -13 10 -13 -13z"/>
<path d="M1009 1937 c-7 -20 -4 -34 7 -34 7 0 11 4 8 8 -2 4 1 9 8 11 8 3 6 7
-5 11 -9 3 -17 5 -18 4z"/>
<path d="M963 1906 c1 -6 -4 -10 -10 -8 -7 1 -13 -2 -13 -8 0 -5 3 -10 8 -11
4 0 15 -2 25 -4 13 -3 15 0 8 9 -7 8 -7 16 0 23 6 6 5 10 -5 10 -8 0 -14 -5
-13 -11z"/>
<path d="M1740 1896 c0 -3 7 -12 16 -20 18 -19 36 -12 27 10 -5 13 -7 13 -14
2 -7 -10 -9 -10 -9 0 0 6 -4 12 -10 12 -5 0 -10 -2 -10 -4z"/>
<path d="M924 1878 c4 -13 0 -18 -12 -18 -11 0 -13 -3 -6 -8 7 -4 14 -16 16
-27 3 -15 6 -11 9 12 3 18 1 38 -4 45 -6 9 -7 8 -3 -4z"/>
<path d="M1430 1871 c0 -12 9 -20 24 -23 22 -4 23 -3 13 19 -12 28 -37 31 -37
4z"/>
<path d="M1190 1820 c-9 -6 -10 -10 -3 -10 6 0 15 5 18 10 8 12 4 12 -15 0z"/>
<path d="M1490 1810 c0 -11 4 -20 9 -20 5 0 7 9 4 20 -3 11 -7 20 -9 20 -2 0
-4 -9 -4 -20z"/>
<path d="M941 1788 l2 -33 6 30 c3 17 8 -19 11 -85 l6 -115 2 118 c2 98 0 117
-13 117 -11 0 -15 -10 -14 -32z"/>
<path d="M1493 1767 c0 -8 6 -14 14 -14 9 0 10 4 2 14 -6 7 -12 13 -14 13 -1
0 -2 -6 -2 -13z"/>
<path d="M1833 1764 c1 -21 27 -23 27 -2 0 5 -4 7 -9 4 -5 -4 -11 0 -14 6 -3
7 -4 3 -4 -8z"/>
<path d="M943 1680 c0 -41 2 -58 4 -37 2 20 2 54 0 75 -2 20 -4 3 -4 -38z"/>
<path d="M1531 1726 c-1 -16 2 -26 5 -23 4 4 15 -3 25 -15 11 -12 19 -16 19
-8 0 7 -8 20 -18 29 -11 9 -21 23 -25 31 -3 9 -6 2 -6 -14z"/>
<path d="M1875 1730 c-4 -6 -11 -8 -16 -5 -16 10 -10 -2 9 -16 9 -7 14 -9 10
-5 -4 5 -3 15 3 23 6 7 9 13 6 13 -3 0 -9 -5 -12 -10z"/>
<path d="M1361 1701 c-16 -10 -25 -71 -10 -71 6 0 6 -6 0 -19 -6 -10 -7 -21
-4 -25 11 -11 14 -48 3 -41 -5 3 -8 0 -5 -7 9 -26 13 -68 7 -68 -6 0 -7 -19
-3 -76 2 -22 61 -7 83 21 11 15 30 36 41 46 12 10 17 19 11 19 -5 0 -2 5 6 10
13 9 13 10 0 10 -13 0 -13 1 0 10 10 6 11 10 3 10 -7 0 -13 7 -13 15 0 15 -22
60 -59 120 -10 17 -24 29 -31 27 -6 -1 -9 2 -6 7 9 14 -7 21 -23 12z"/>
<path d="M1183 1632 c-1 -25 3 -39 7 -32 6 10 9 9 12 -1 3 -8 5 7 5 32 -1 61
-23 62 -24 1z m14 -4 c-3 -7 -5 -2 -5 12 0 14 2 19 5 13 2 -7 2 -19 0 -25z"/>
<path d="M1869 1663 c-1 -5 -1 -11 0 -15 1 -8 -15 -12 -31 -9 -4 0 -7 -9 -6
-22 1 -15 9 -24 22 -25 15 -1 17 1 8 7 -17 10 -17 22 -1 32 12 7 22 39 13 39
-2 0 -5 -3 -5 -7z"/>
<path d="M1612 1610 c0 -19 2 -27 5 -17 2 9 2 25 0 35 -3 9 -5 1 -5 -18z"/>
<path d="M1636 1603 c5 -5 12 -12 16 -18 4 -6 8 -2 8 8 0 9 -7 17 -17 17 -9 0
-12 -3 -7 -7z"/>
<path d="M1632 1570 c0 -14 2 -19 5 -12 2 6 2 18 0 25 -3 6 -5 1 -5 -13z"/>
<path d="M944 1365 c0 -121 2 -169 3 -107 2 62 2 161 0 220 -1 59 -3 8 -3
-113z"/>
<path d="M964 1235 c-1 -192 1 -338 3 -322 3 19 10 27 24 27 11 0 17 4 14 10
-4 6 16 10 52 10 41 0 54 3 43 10 -12 8 -11 10 7 10 12 0 23 4 25 10 2 5 17
10 35 12 17 1 29 6 27 10 -3 4 1 8 8 8 9 0 9 3 -2 10 -12 8 -10 10 10 10 l25
1 -25 14 c-30 16 -29 16 -32 -19 -2 -21 -7 -26 -23 -23 -11 3 -31 1 -45 -3
-21 -7 -22 -8 -5 -9 37 -2 -32 -30 -80 -32 -24 -2 -42 -6 -39 -11 3 -4 0 -8
-5 -8 -7 0 -12 105 -14 318 l-2 317 -1 -350z"/>
<path d="M1181 1564 c0 -11 3 -14 6 -6 3 7 2 16 -1 19 -3 4 -6 -2 -5 -13z"/>
<path d="M1201 1564 c0 -11 3 -14 6 -6 3 7 2 16 -1 19 -3 4 -6 -2 -5 -13z"/>
<path d="M1653 1510 c0 -36 2 -50 4 -32 2 17 2 47 0 65 -2 17 -4 3 -4 -33z"/>
<path d="M1794 1533 c15 -4 16 -7 5 -15 -11 -7 -11 -9 -1 -6 20 5 16 23 -5 25
-15 2 -15 1 1 -4z"/>
<path d="M1183 1480 c0 -30 2 -43 4 -27 2 15 2 39 0 55 -2 15 -4 2 -4 -28z"/>
<path d="M983 1475 c0 -27 2 -38 4 -22 2 15 2 37 0 50 -2 12 -4 0 -4 -28z"/>
<path d="M1632 1490 c0 -19 2 -27 5 -17 2 9 2 25 0 35 -3 9 -5 1 -5 -18z"/>
<path d="M1612 1415 c0 -16 2 -22 5 -12 2 9 2 23 0 30 -3 6 -5 -1 -5 -18z"/>
<path d="M1197 1410 c-9 -11 -13 -20 -7 -20 5 0 14 9 20 20 6 11 9 20 8 20 -2
0 -11 -9 -21 -20z"/>
<path d="M1753 1415 c0 -7 6 -11 14 -8 7 3 13 6 13 8 0 2 -6 5 -13 8 -8 3 -14
-1 -14 -8z"/>
<path d="M1590 1384 c0 -9 -5 -12 -12 -8 -7 4 -8 3 -4 -4 9 -16 36 -3 29 14
-7 18 -13 18 -13 -2z"/>
<path d="M1787 1367 c-3 -8 -1 -20 4 -28 6 -10 9 -7 9 14 0 29 -5 35 -13 14z"/>
<path d="M1180 1366 c0 -2 7 -7 16 -10 8 -3 12 -2 9 4 -6 10 -25 14 -25 6z"/>
<path d="M1548 1348 c-7 -17 15 -19 29 -3 4 4 3 5 -4 2 -6 -4 -13 -2 -15 5 -3
8 -6 6 -10 -4z"/>
<path d="M1181 1314 c0 -11 3 -14 6 -6 3 7 2 16 -1 19 -3 4 -6 -2 -5 -13z"/>
<path d="M1510 1310 c0 -5 -3 -9 -7 -7 -5 1 -9 -1 -10 -5 -4 -11 -2 -11 30 1
32 12 35 21 7 21 -11 0 -20 -4 -20 -10z"/>
<path d="M1839 1319 c-7 -33 -5 -70 3 -75 7 -4 8 -2 4 4 -4 7 -3 12 2 12 10 0
10 46 -1 56 -4 4 -7 5 -8 3z"/>
<path d="M1501 1248 c-11 -17 -10 -18 8 -9 14 8 21 8 24 -2 4 -7 6 -6 6 4 1
25 -24 30 -38 7z"/>
<path d="M983 1215 c0 -27 2 -38 4 -22 2 15 2 37 0 50 -2 12 -4 0 -4 -28z"/>
<path d="M1188 1253 c7 -3 16 -2 19 1 4 3 -2 6 -13 5 -11 0 -14 -3 -6 -6z"/>
<path d="M1872 1224 c-2 -26 13 -40 24 -23 4 8 3 9 -4 5 -14 -9 -15 -1 -3 23
7 12 6 18 -2 18 -7 0 -14 -11 -15 -23z"/>
<path d="M1197 1209 c7 -7 15 -10 18 -7 3 3 -2 9 -12 12 -14 6 -15 5 -6 -5z"/>
<path d="M1570 1179 c0 -8 7 -22 14 -32 11 -14 15 -15 19 -3 3 8 -3 22 -14 32
-15 13 -19 14 -19 3z"/>
<path d="M1900 1180 c-9 -6 -10 -10 -3 -10 6 0 15 5 18 10 8 12 4 12 -15 0z"/>
<path d="M1926 1158 c3 -5 10 -6 15 -3 13 9 11 12 -6 12 -8 0 -12 -4 -9 -9z"/>
<path d="M1205 1139 c-3 -4 2 -6 10 -5 21 3 28 13 10 13 -9 0 -18 -4 -20 -8z"/>
<path d="M1930 1136 c0 -2 8 -10 18 -17 15 -13 16 -12 3 4 -13 16 -21 21 -21
13z"/>
<path d="M1181 1114 c0 -11 3 -14 6 -6 3 7 2 16 -1 19 -3 4 -6 -2 -5 -13z"/>
<path d="M1420 1120 c-8 -5 -18 -6 -22 -4 -4 3 -13 -6 -20 -20 -6 -14 -16 -26
-22 -26 -6 0 -4 -5 4 -10 8 -5 10 -10 3 -10 -6 0 -10 -11 -9 -24 4 -29 -19
-85 -34 -87 -5 -1 -14 -3 -20 -4 -5 -1 -15 -3 -21 -4 -5 0 -7 -5 -4 -11 3 -5
-1 -10 -10 -10 -9 0 -13 -4 -10 -10 3 -5 -4 -10 -17 -11 -23 -1 -23 -1 2 -9
l25 -8 -24 -1 c-35 -1 -20 -11 22 -14 35 -3 70 -22 112 -62 24 -23 28 -25 54
-25 11 0 26 -6 33 -12 22 -21 61 -41 53 -28 -4 7 1 7 14 -2 12 -7 21 -16 21
-21 0 -4 5 -5 12 -1 7 4 8 3 4 -5 -4 -6 0 -14 8 -17 9 -3 16 -10 16 -16 0 -5
-4 -7 -8 -4 -5 3 -9 -1 -9 -9 0 -8 4 -12 8 -9 4 2 10 -6 12 -18 3 -15 5 -9 7
17 l3 40 7 -40 7 -40 2 38 c0 20 6 37 11 37 6 0 10 10 9 23 0 21 -1 21 -9 2
-7 -16 -9 -17 -9 -3 -1 9 4 20 9 23 6 3 10 21 10 40 0 19 -4 37 -10 40 -5 3
-10 15 -10 25 0 11 -9 34 -20 52 -11 18 -20 41 -20 51 0 10 -4 15 -10 12 -5
-3 -10 1 -10 9 0 9 -4 16 -10 16 -5 0 -10 10 -10 22 0 12 -3 18 -7 15 -9 -10
-33 13 -33 32 0 10 -9 27 -20 39 -11 12 -20 26 -20 32 0 6 -4 9 -9 6 -5 -4
-11 -2 -13 4 -2 6 -9 6 -18 0z"/>
<path d="M943 1085 c0 -22 2 -30 4 -17 2 12 2 30 0 40 -3 9 -5 -1 -4 -23z"/>
<path d="M1965 1101 c-3 -5 0 -13 6 -17 7 -4 9 -3 5 4 -3 5 0 13 6 15 9 4 10
6 1 6 -6 1 -14 -3 -18 -8z"/>
<path d="M1652 1070 c0 -19 2 -27 5 -17 2 9 2 25 0 35 -3 9 -5 1 -5 -18z"/>
<path d="M1997 1083 c-10 -9 -9 -23 1 -23 5 0 9 7 9 15 0 17 -1 18 -10 8z"/>
<path d="M1139 1043 c-13 -16 -12 -17 4 -4 9 7 17 15 17 17 0 8 -8 3 -21 -13z"/>
<path d="M1995 1041 c-3 -5 -2 -12 3 -15 5 -3 9 1 9 9 0 17 -3 19 -12 6z"/>
<path d="M1692 1010 c0 -14 2 -19 5 -12 2 6 2 18 0 25 -3 6 -5 1 -5 -13z"/>
<path d="M942 980 c0 -19 2 -27 5 -17 2 9 2 25 0 35 -3 9 -5 1 -5 -18z"/>
<path d="M2035 954 c0 -19 3 -34 8 -34 8 0 6 60 -3 65 -3 2 -5 -12 -5 -31z"/>
<path d="M1718 969 c6 -7 12 -32 12 -54 0 -30 4 -42 15 -42 10 0 12 4 4 13 -5
6 -9 16 -8 20 5 31 -3 63 -18 69 -15 5 -16 4 -5 -6z"/>
<path d="M1028 943 c7 -3 16 -2 19 1 4 3 -2 6 -13 5 -11 0 -14 -3 -6 -6z"/>
<path d="M942 920 c0 -14 2 -19 5 -12 2 6 2 18 0 25 -3 6 -5 1 -5 -13z"/>
<path d="M2013 888 c-4 -7 -8 -21 -9 -30 -1 -10 -3 -20 -4 -23 -1 -3 -3 -11
-4 -17 -1 -7 -8 -12 -16 -10 -10 2 -11 0 -2 -11 7 -8 9 -17 5 -21 -4 -4 1 -4
12 0 12 5 14 9 6 12 -9 3 -8 9 5 24 21 22 26 45 13 54 -6 3 -5 11 2 20 6 8 9
14 6 14 -3 0 -9 -6 -14 -12z"/>
<path d="M1767 841 c-3 -11 -2 -23 1 -26 4 -3 6 -23 4 -43 -1 -20 1 -31 4 -24
3 6 11 9 17 5 9 -5 9 -3 1 8 -6 8 -10 22 -9 31 2 10 0 20 -5 23 -4 3 -6 14 -3
25 3 11 3 20 0 20 -2 0 -7 -9 -10 -19z"/>
<path d="M986 802 c-3 -5 1 -9 9 -9 8 0 15 4 15 9 0 4 -4 8 -9 8 -6 0 -12 -4
-15 -8z"/>
<path d="M1105 801 c-3 -6 -11 -8 -17 -5 -7 5 -8 2 -4 -5 5 -7 11 -10 14 -7 3
3 11 1 18 -5 9 -7 12 -6 10 5 -3 22 -13 29 -21 17z"/>
<path d="M860 787 c0 -4 -4 -5 -10 -2 -5 3 -10 1 -10 -5 0 -6 -5 -8 -12 -4 -6
4 -8 3 -4 -4 3 -6 -2 -15 -11 -21 -10 -5 -14 -13 -10 -18 5 -4 14 0 21 9 7 10
15 17 17 15 2 -1 3 0 1 3 -1 2 12 12 30 21 27 15 29 17 11 16 -13 -1 -23 -5
-23 -10z"/>
<path d="M1036 791 c-12 -5 -15 -10 -9 -14 6 -4 16 0 23 8 14 17 13 17 -14 6z"/>
<path d="M1946 771 c-14 -15 -15 -21 -4 -27 7 -4 10 -3 5 1 -4 5 0 17 10 27 9
10 14 18 11 18 -3 0 -13 -9 -22 -19z"/>
<path d="M1160 770 c0 -5 5 -10 11 -10 5 0 7 5 4 10 -3 6 -8 10 -11 10 -2 0
-4 -4 -4 -10z"/>
<path d="M781 742 c-1 -7 -5 -10 -11 -7 -5 3 -10 1 -10 -5 0 -6 -5 -8 -10 -5
-6 4 -9 1 -8 -7 2 -7 -4 -12 -12 -10 -8 2 -12 1 -8 -3 3 -4 -10 -22 -30 -41
-31 -28 -35 -35 -22 -44 14 -9 13 -11 -9 -14 -5 0 -13 -5 -18 -9 -4 -5 -3 -7
2 -5 6 2 10 -1 10 -7 0 -5 -4 -9 -8 -7 -5 1 -5 -2 -2 -8 13 -21 47 22 42 53
-4 32 9 45 26 27 7 -8 8 -10 1 -7 -6 3 -11 0 -11 -7 0 -8 7 -13 16 -11 11 1
15 10 13 30 -3 20 0 25 9 20 7 -5 10 -4 6 2 -4 6 3 13 14 16 12 3 18 10 15 15
-3 6 -1 12 5 14 7 2 9 11 6 19 -4 10 -6 10 -6 1z"/>
<path d="M1195 743 c11 -3 24 -10 28 -17 6 -7 7 -6 4 4 -2 8 -14 16 -28 17
-19 1 -20 1 -4 -4z"/>
<path d="M1255 721 c2 -9 4 -20 4 -25 1 -4 15 -6 32 -4 22 4 34 -1 44 -16 8
-11 27 -21 42 -23 l28 -2 -26 12 c-16 7 -25 19 -23 30 1 9 -1 15 -6 12 -4 -3
-13 1 -19 9 -14 16 -47 14 -43 -3 2 -12 -11 -15 -21 -4 -4 3 -2 11 3 18 7 8 5
12 -4 12 -8 0 -12 -7 -11 -16z m82 -25 c18 -21 18 -21 -3 -3 -11 9 -23 14 -26
11 -3 -3 -8 -1 -12 4 -11 18 25 8 41 -12z"/>
<path d="M1893 718 c-20 -26 -26 -41 -15 -34 12 7 36 46 29 46 -3 0 -9 -6 -14
-12z"/>
<path d="M1853 665 c0 -8 4 -12 9 -9 5 3 6 10 3 15 -9 13 -12 11 -12 -6z"/>
<path d="M1796 641 c-3 -5 4 -16 17 -24 22 -14 23 -14 23 9 0 16 -3 21 -10 14
-6 -5 -14 -10 -19 -10 -4 0 -5 5 -2 10 3 6 4 10 1 10 -3 0 -7 -4 -10 -9z"/>
<path d="M1415 624 c-19 -14 -19 -15 2 -11 26 4 38 13 26 20 -4 3 -17 -1 -28
-9z"/>
<path d="M1770 631 c0 -7 -4 -10 -9 -7 -5 4 -8 -2 -7 -11 2 -13 13 -18 35 -19
24 -1 29 2 19 10 -7 6 -19 17 -25 25 -9 11 -13 11 -13 2z m14 -19 c3 -5 -1 -9
-9 -9 -8 0 -12 4 -9 9 3 4 7 8 9 8 2 0 6 -4 9 -8z"/>
<path d="M746 597 c8 -5 18 -6 21 -4 3 3 15 2 27 -3 17 -6 23 -5 23 6 0 10
-13 13 -44 12 -30 -2 -38 -5 -27 -11z"/>
<path d="M837 596 c-4 -11 1 -13 25 -9 19 3 34 0 39 -9 6 -9 9 -10 9 -1 0 7 7
10 18 6 9 -3 14 -3 11 1 -4 4 -19 9 -35 12 -16 3 -36 7 -45 10 -9 2 -19 -2
-22 -10z"/>
<path d="M974 595 c8 -7 14 -14 11 -17 -3 -2 1 -5 9 -5 11 0 12 4 4 17 -6 9
-17 17 -26 17 -12 0 -12 -2 2 -12z"/>
<path d="M1438 598 c-9 -6 -7 -8 7 -6 11 2 20 -2 20 -9 0 -22 11 -22 11 1 0
23 -16 29 -38 14z"/>
<path d="M1717 561 c-9 -12 -9 -13 1 -7 8 5 12 0 12 -13 0 -14 5 -19 15 -15 8
4 15 12 15 20 0 8 5 14 11 14 5 0 7 -6 3 -12 -4 -7 -3 -9 1 -5 5 4 10 13 11
20 2 17 -54 16 -69 -2z m31 -16 c-3 -3 -9 2 -12 12 -6 14 -5 15 5 6 7 -7 10
-15 7 -18z"/>
<path d="M1015 559 c-15 -6 -9 -8 20 -8 58 1 67 0 61 -9 -2 -4 4 -8 14 -8 10
0 16 4 14 8 -3 4 2 8 10 8 9 0 16 4 16 9 0 10 -109 10 -135 0z"/>
<path d="M1160 540 c-9 -6 -10 -10 -3 -10 6 0 15 5 18 10 8 12 4 12 -15 0z"/>
<path d="M1511 534 c0 -11 3 -14 6 -6 3 7 2 16 -1 19 -3 4 -6 -2 -5 -13z"/>
<path d="M1180 523 l-25 -14 25 3 c14 2 24 -2 23 -8 -1 -6 4 -11 12 -11 8 0
12 4 9 9 -3 4 2 8 10 8 9 0 16 5 16 11 0 5 -5 7 -10 4 -6 -4 -16 -3 -23 3 -8
5 -21 4 -37 -5z"/>
<path d="M1711 524 c0 -11 3 -14 6 -6 3 7 2 16 -1 19 -3 4 -6 -2 -5 -13z"/>
<path d="M1513 495 c0 -7 6 -11 14 -8 7 3 13 6 13 8 0 2 -6 5 -13 8 -8 3 -14
-1 -14 -8z"/>
<path d="M1248 493 c6 -2 10 -8 7 -13 -2 -4 5 -7 18 -6 13 1 21 -4 20 -11 -2
-8 7 -13 23 -13 15 0 23 -4 19 -10 -4 -6 -1 -9 7 -8 7 2 12 -2 11 -8 -1 -6 4
-11 12 -11 23 0 5 25 -31 42 -36 17 -46 28 -16 19 13 -5 14 -4 3 4 -8 6 -23 9
-33 7 -10 -2 -18 0 -18 6 0 5 -8 9 -17 8 -11 0 -13 -3 -5 -6z"/>
<path d="M1590 444 l-25 -14 26 2 c14 1 26 8 26 15 0 7 -1 13 -1 12 -1 -1 -12
-7 -26 -15z"/>
<path d="M1638 453 c7 -3 16 -2 19 1 4 3 -2 6 -13 5 -11 0 -14 -3 -6 -6z"/>
<path d="M1598 413 c7 -3 16 -2 19 1 4 3 -2 6 -13 5 -11 0 -14 -3 -6 -6z"/>
<path d="M1383 387 c0 -7 9 -14 20 -14 11 -1 18 -1 16 0 -2 2 -11 8 -20 15
-12 9 -16 9 -16 -1z"/>
<path d="M1420 360 c-11 -7 -11 -10 -2 -10 8 0 10 -5 6 -12 -6 -10 -4 -10 8 0
13 10 17 10 20 0 3 -8 7 -6 11 6 4 10 3 15 -3 11 -6 -3 -10 -1 -10 4 0 13 -10
14 -30 1z"/>
<path d="M1503 338 c-9 -10 -25 -18 -35 -18 -16 0 -17 -2 -6 -14 7 -8 15 -10
16 -5 2 5 13 9 25 10 12 0 17 3 10 6 -10 3 -10 7 0 18 9 10 15 10 26 1 11 -8
13 -8 8 1 -4 6 -1 13 5 16 7 3 3 4 -10 4 -13 -1 -30 -9 -39 -19z"/>
</g>
</svg>
